<?xml version="1.0" encoding="UTF-8"?> <svg xmlns="http://www.w3.org/2000/svg" xmlns:xlink="http://www.w3.org/1999/xlink" width="68" height="172" viewBox="0 0 68 172"><defs><clipPath id="clip-path"><rect id="Rectangle_4931" data-name="Rectangle 4931" width="68" height="172" transform="translate(-7636 4405)" fill="#fb1818"></rect></clipPath></defs><g id="Groupe_de_masques_12" data-name="Groupe de masques 12" transform="translate(7636 -4405)" clip-path="url(#clip-path)"><g id="Groupe_19910" data-name="Groupe 19910" transform="translate(-7705.831 4157.895)"><g id="Groupe_1704" data-name="Groupe 1704" transform="translate(70.084 332.959)"><g id="Groupe_1703" data-name="Groupe 1703"><path id="Tracé_27363" data-name="Tracé 27363" d="M72.059,332.959,94.6,360.389l22.787-27.221,1.966,1.644L95.57,363.221a1.281,1.281,0,0,1-.983.463h-.006a1.3,1.3,0,0,1-.986-.472l-23.516-28.62Z" transform="translate(-70.078 -332.959)" fill="#e3d933"></path></g></g><g id="Groupe_1705" data-name="Groupe 1705" transform="translate(70.124 350.883)"><path id="Tracé_27364" data-name="Tracé 27364" d="M72.084,345.192l22.538,27.429L117.409,345.4l1.965,1.645L95.6,375.451a1.27,1.27,0,0,1-.983.462h-.007a1.288,1.288,0,0,1-.983-.467L70.105,346.823Z" transform="translate(-70.105 -345.192)" fill="#36b1d0"></path></g><g id="Groupe_1707" data-name="Groupe 1707" transform="translate(70.065 366.874)"><g id="Groupe_1706" data-name="Groupe 1706"><path id="Tracé_27365" data-name="Tracé 27365" d="M72.044,356.106l22.541,27.429,22.782-27.222,1.966,1.644L95.555,386.365a1.265,1.265,0,0,1-.983.463h-.006a1.291,1.291,0,0,1-.985-.467L70.065,357.737Z" transform="translate(-70.065 -356.106)" fill="#e3d933"></path></g></g><g id="Groupe_1708" data-name="Groupe 1708" transform="translate(70.105 384.796)"><path id="Tracé_27366" data-name="Tracé 27366" d="M72.074,368.338l22.533,27.426,22.787-27.219,1.966,1.644L95.584,398.6a1.268,1.268,0,0,1-.983.46h-.006a1.285,1.285,0,0,1-.983-.464L70.092,369.967Z" transform="translate(-70.092 -368.338)" fill="#36b1d0"></path></g></g></g></svg> 