<?xml version="1.0" encoding="utf-8"?>
<!-- Generator: Adobe Illustrator 23.0.3, SVG Export Plug-In . SVG Version: 6.00 Build 0)  -->
<svg version="1.1" id="Layer_1" xmlns="http://www.w3.org/2000/svg" xmlns:xlink="http://www.w3.org/1999/xlink" x="0px" y="0px"
	 viewBox="0 0 100 100" style="enable-background:new 0 0 100 100;" xml:space="preserve">
<style type="text/css">
	.st0{fill-rule:evenodd;clip-rule:evenodd;fill:#054ADA;}
</style>
<title>pictograms/infrastructure/</title>
<desc>Created with Sketch.</desc>
<g>
	<g transform="translate(-370.000000, -564.000000)">
		<g transform="translate(0.000000, 480.000000)">
			<g transform="translate(370.000000, 84.000000)">
				<path id="Fill-2" class="st0" d="M95.9,49V16.9H81.4v-2.3H97c0.6,0,1.1,0.5,1.1,1.1v68.8c0,0.6-0.5,1.1-1.1,1.1c0,0-0.1,0-0.1,0
					H81.4v-2.3h14.5V51.3H81.4V49H95.9z M65.7,15.8c0,1.7-1.4,3.1-3.1,3.1c-1.7,0-3.1-1.4-3.1-3.1c0-1.7,1.4-3.1,3.1-3.1
					C64.4,12.6,65.7,14,65.7,15.8z M65.8,50.1c0,1.7-1.4,3.1-3.1,3.1c-1.7,0-3.1-1.4-3.1-3.1c0-1.7,1.4-3.1,3.1-3.1
					C64.4,47,65.8,48.4,65.8,50.1z M65.8,84.5c0,1.7-1.4,3.1-3.1,3.1c-1.7,0-3.1-1.4-3.1-3.1c0-1.7,1.4-3.1,3.1-3.1
					C64.4,81.4,65.8,82.8,65.8,84.5z M4.4,27.1H74V4.4H4.4V27.1z M75.1,29.4H3.2c-0.6,0-1.1-0.5-1.1-1.1v-25c0-0.6,0.5-1.1,1.1-1.1
					h71.9c0.6,0,1.1,0.5,1.1,1.1v25C76.3,28.9,75.8,29.4,75.1,29.4z M4.4,61.5H74V38.8H4.4V61.5z M75.1,63.8H3.2
					c-0.6,0-1.1-0.5-1.1-1.1v-25c0-0.6,0.5-1.1,1.1-1.1h71.9c0.6,0,1.1,0.5,1.1,1.1v25C76.3,63.2,75.8,63.8,75.1,63.8z M4.4,95.9H74
					V73.1H4.4V95.9z M75.1,98.1H3.2c-0.6,0-1.1-0.5-1.1-1.1V72c0-0.6,0.5-1.1,1.1-1.1h71.9c0.6,0,1.1,0.5,1.1,1.1v25
					C76.3,97.6,75.8,98.1,75.1,98.1z"/>
			</g>
		</g>
	</g>
</g>
</svg>
