<?xml version="1.0" encoding="utf-8"?>
<!-- Generator: Adobe Illustrator 23.0.3, SVG Export Plug-In . SVG Version: 6.00 Build 0)  -->
<svg version="1.1" id="Layer_1" xmlns="http://www.w3.org/2000/svg" xmlns:xlink="http://www.w3.org/1999/xlink" x="0px" y="0px"
	 viewBox="0 0 100 100" style="enable-background:new 0 0 100 100;" xml:space="preserve">
<style type="text/css">
	.st0{fill-rule:evenodd;clip-rule:evenodd;fill:#054ADA;}
</style>
<title>pictograms/infrastructure/</title>
<desc>Created with Sketch.</desc>
<g>
	<g transform="translate(-720.000000, -563.000000)">
		<g transform="translate(0.000000, 480.000000)">
			<g transform="translate(720.000000, 83.000000)">
				<path id="Fill-2" class="st0" d="M81,86.6H43.1c-23,0-41.8-18.7-41.8-41.8C1.3,21.8,20,3,43.1,3s41.8,18.7,41.8,41.8h-2.2
					C82.7,23,65,5.3,43.2,5.3S3.6,23.1,3.6,44.9s17.7,39.5,39.5,39.5H81l-9.1-9.1l1.6-1.6l11,11c0.2,0.2,0.3,0.5,0.3,0.8
					s-0.1,0.6-0.3,0.8l-11,11l-1.6-1.6L81,86.6z M39.6,68.8h7v-4.9c0-0.5,0.3-0.9,0.7-1l4.4-1.8c0.4-0.2,0.9-0.1,1.2,0.2l3.5,3.5
					l4.9-4.9l-3.5-3.5c-0.3-0.3-0.4-0.8-0.2-1.2l1.8-4.4c0.2-0.4,0.6-0.7,1-0.7h4.9v-7h-4.9c-0.5,0-0.9-0.3-1-0.7L57.6,38
					c-0.2-0.4-0.1-0.9,0.2-1.2l3.5-3.5l-4.9-4.9l-3.5,3.5c-0.3,0.3-0.8,0.4-1.2,0.2l-4.4-1.8c-0.4-0.2-0.7-0.6-0.7-1v-4.9h-7v4.9
					c0,0.5-0.3,0.9-0.7,1l-4.4,1.8c-0.4,0.2-0.9,0.1-1.2-0.2l-3.5-3.5l-4.9,4.9l3.5,3.5c0.3,0.3,0.4,0.8,0.2,1.2l-1.8,4.4
					c-0.2,0.4-0.6,0.7-1,0.7h-4.9v7h4.9c0.5,0,0.9,0.3,1,0.7l1.8,4.4c0.2,0.4,0.1,0.9-0.2,1.2l-3.5,3.5l4.9,4.9l3.5-3.5
					c0.3-0.3,0.8-0.4,1.2-0.2l4.4,1.8c0.4,0.2,0.7,0.6,0.7,1V68.8z M47.7,71h-9.2c-0.6,0-1.1-0.5-1.1-1.1v-5.3l-3-1.3l-3.8,3.8
					c-0.4,0.4-1.2,0.4-1.6,0l-6.5-6.5c-0.4-0.4-0.4-1.2,0-1.6l3.7-3.7l-1.2-3h-5.3c-0.6,0-1.1-0.5-1.1-1.1V42c0-0.6,0.5-1.1,1.1-1.1
					H25l1.3-3l-3.8-3.8c-0.4-0.4-0.4-1.2,0-1.6L29,26c0.4-0.4,1.2-0.4,1.6,0l3.8,3.8l3-1.2V23c0-0.6,0.5-1.1,1.1-1.1h9.2
					c0.6,0,1.1,0.5,1.1,1.1v5.3l3,1.3l3.8-3.8c0.4-0.4,1.2-0.4,1.6,0l6.5,6.5c0.2,0.2,0.3,0.5,0.3,0.8s-0.1,0.6-0.3,0.8L60,37.7
					l1.2,3h5.3c0.6,0,1.1,0.5,1.1,1.1V51c0,0.6-0.5,1.1-1.1,1.1h-5.3l-1.3,3l3.8,3.8c0.2,0.2,0.3,0.5,0.3,0.8s-0.1,0.6-0.3,0.8
					L57.2,67c-0.4,0.4-1.2,0.4-1.6,0l-3.8-3.7l-3,1.2v5.3C48.9,70.5,48.4,71,47.7,71z"/>
			</g>
		</g>
	</g>
</g>
</svg>
