<?xml version="1.0" encoding="utf-8"?>
<!-- Generator: Adobe Illustrator 23.0.3, SVG Export Plug-In . SVG Version: 6.00 Build 0)  -->
<svg version="1.1" id="Layer_1" xmlns="http://www.w3.org/2000/svg" xmlns:xlink="http://www.w3.org/1999/xlink" x="0px" y="0px"
	 viewBox="0 0 100 100" style="enable-background:new 0 0 100 100;" xml:space="preserve">
<style type="text/css">
	.st0{fill-rule:evenodd;clip-rule:evenodd;fill:#054ADA;}
</style>
<title>pictograms/cloud/IBM cloud infrastructure for analytics</title>
<desc>Created with Sketch.</desc>
<g>
	<g transform="translate(-1070.000000, -561.000000)">
		<g transform="translate(0.000000, 480.000000)">
			<g transform="translate(1070.000000, 81.000000)">
				<path id="Fill-9" class="st0" d="M29.1,61.5v-9.4h2.2v9.4H29.1z M71.9,88.6c5.4-3.1,9.9-7.2,13.5-11.9V36.5h2.2v37
					c7.8-12.4,9.4-28.1,3.5-42.1L56.4,11.3l1.1-1.9l32,18.5c-0.3-0.5-0.5-1.1-0.8-1.6C82.5,15.6,72.7,8,60.9,4.8c-2-0.5-4-0.9-6-1.2
					L20,23.8l-1.1-1.9l32-18.5c-0.7,0-1.3-0.1-2-0.1c-7.9,0-15.8,2.1-22.8,6.2c-5.3,3.1-9.9,7.1-13.5,11.8v40.3h-2.2v-37
					c-2.5,3.9-4.3,8.1-5.6,12.7c-2.7,9.9-1.9,20.2,2,29.5l34.8,20.1l-1.1,1.9l-32-18.5c0.3,0.5,0.5,1.1,0.8,1.6
					c7.4,12.8,20.2,20.7,33.9,22.4L78,74.3l1.1,1.9l-32,18.5C55.6,95,64.1,93.1,71.9,88.6z M90.6,25c13.2,22.9,5.4,52.3-17.6,65.6
					C65.5,94.9,57.2,97,49.1,97c-16.6,0-32.8-8.6-41.6-24C1,61.9-0.7,49,2.7,36.6S13.9,13.9,25,7.5c11.1-6.4,24-8.1,36.4-4.8
					C73.8,6,84.2,13.9,90.6,25z M54.1,61.5V45.9h2.2v15.6H54.1z M66.6,61.5v-25h2.2v25H66.6z M41.6,61.5v-25h2.2v25H41.6z"/>
			</g>
		</g>
	</g>
</g>
</svg>
